<svg id="Camada_1" data-name="Camada 1" xmlns="http://www.w3.org/2000/svg" viewBox="0 0 300 300"><defs><style>.cls-1{fill:#9a999e;}.cls-2{fill:#f7f7f8;stroke:#727176;stroke-miterlimit:10;}</style></defs><title>SVG-0</title><rect class="cls-1" width="300" height="300"/><path class="cls-2" d="M184.08,151.14l34.77-34.76a14.11,14.11,0,0,0,0-19.94l-13-13a14.11,14.11,0,0,0-19.94,0l-34.77,34.77-37-37.06a14.11,14.11,0,0,0-19.94,0l-13,13a14.11,14.11,0,0,0,0,19.94l37.06,37L83.44,185.91a14.11,14.11,0,0,0,0,19.94l13,13a14.11,14.11,0,0,0,19.94,0l34.76-34.77,32.48,32.48a14.11,14.11,0,0,0,19.94,0l13-13a14.11,14.11,0,0,0,0-19.94Z"/></svg>